<svg id="eJXpalsmChj1" xmlns="http://www.w3.org/2000/svg" xmlns:xlink="http://www.w3.org/1999/xlink" viewBox="0 0 24 24"
  shape-rendering="geometricPrecision" text-rendering="geometricPrecision">
  <path
    d="M12,19c3.866,0,7-3.134,7-7s-3.134-7-7-7-7,3.13401-7,7s3.13401,7,7,7Zm0,3c5.5228,0,10-4.4772,10-10s-4.4772-10-10-10-10,4.47715-10,10s4.47715,10,10,10Z"
    opacity="0.2" clip-rule="evenodd" fill-rule="evenodd" />
  <path id="eJXpalsmChj3" d="M12,22c5.5228,0,10-4.4772,10-10h-3c0,3.866-3.134,7-7,7v3Z" />
  <path id="eJXpalsmChj4" d="M2,12C2,6.47715,6.47715,2,12,2v3C8.13401,5,5,8.13401,5,12h-3Z" />
  <animateTransform attributeType="xml" attributeName="transform" type="rotate" from="360 0 0" to="0 0 0" dur="1s"
    additive="sum" repeatCount="indefinite" />
</svg>